<?xml version="1.0" encoding="UTF-8"?>
<svg id="Capa_2" data-name="Capa 2" xmlns="http://www.w3.org/2000/svg" viewBox="0 0 769.23 90.18">
  <g id="Capa_1-2" data-name="Capa 1">
    <g>
      <path d="m418.49,47.94c4.66,2.96,7.16,6.14,5,10.12-2.62,4.66-8.98,3.18-17.06-.34l-28.35-11.3c-7.05-2.62-10.8,3.75-6.82,9.78l8.45,12.99c6.71,10.35.91,18.65-9.89,18.65-7.96,0-12.73-5.23-11.71-14.1l6.71-54.11c1.36-11.37,7.96-17.62,18.08-17.62h39.57c7.62,0,14.67,3.64,14.67,12.05,0,9.78-5.34,12.96-12.05,12.96-3.98,0-12.62-4.09-18.08-6.59l-17.95-8.13c-7.05-3.18-10.57-.91-12.05,1.93-1.25,2.73-.8,5.91,3.3,8.53l38.18,25.18Z"/>
      <path d="m66.39,33.69C63.38,13.01,74.28.11,91.85.11c14.01,0,19.68,7.34,19.79,34.25l.22,37.03c.11,12.68-7.23,16.57-13.46,16.57-9.34,0-12.23-7.23-12.23-12.9,0-4.78,2.45-11.79,3.67-16.12l12.57-44.37c2.56-9.23-9.23-12.45-12.23-2.56l-17.57,58.05c-3.34,11.12-6.89,17.9-14.34,17.9-5.11,0-9.23-3.67-15.23-15.68l-12.9-25.58c-3.34-6.67-5.67-16.68-4.23-25.91l1-6.34c.89-5.67-3.67-8.56-8.78-8.56-6.23,0-9.9,4.67-9.9,11.01,0,3.11,1.45,8.12,2.45,10.56l15.35,37.7c4.67,11.45,2.34,22.8-9.67,22.8C1.78,87.96,0,73.28,0,57.16v-23.46C0,8.67,7.45,0,20.35,0c8.78,0,16.12,4.45,20.91,16.01l18.01,43.7c1.67,4.11,3.89,5.45,6,5.45,3.56,0,5.23-3.56,4-11.68l-2.89-19.79Z"/>
      <path d="m283.87,90.18c-10.96,0-17.6-6.58-17.78-17.6-.09-7.14,5.5-15.72,10.9-24.02,4.38-6.73,8.51-13.08,8.51-17.18,0-4.81-8.19-6.52-15.2-6.52-11,0-25.83,4.87-31.51,18.57-1.01,4.2-1.73,8-2.16,11.3-2.18,15.54,1.93,24.81,12.21,27.55l.9.24v4.19h-50.86v-4.29l1.01-.17c8.18-1.34,16.75-7.38,23.52-16.59,6.47-8.8,10.34-19.2,10.34-27.82,0-6.22-2.31-13.62-13.31-13.62-8.48,0-14.23,2.55-17.09,7.59l-.53.93-4.79-1.97.47-1.12c3.24-7.76,7.66-14.41,12.77-19.21,5.82-5.47,12.43-8.36,19.11-8.36,9.16,0,14.62,5.29,14.62,14.15,0,1.43-.25,3.23-.7,5.44,7.36-10.37,19.38-19.59,35-19.59,12.43,0,20.15,6.57,20.15,17.15,0,5.9-5.69,14.37-11.19,22.55-4.82,7.16-9.8,14.57-9.8,18.79,0,4.82,3.83,7.47,10.78,7.47s15.37-2.55,17.46-9.7l.4-1.36,5.16,2.45-.23.95c-1.76,7.4-5.24,14.65-9.53,19.9-5.31,6.48-11.75,9.91-18.63,9.91Z"/>
      <path d="m120.32,63.01c0-10.19,8.02-17.05,28.24-20.22l7.19-1.17c-10.03,6.02-20.56,11.87-20.56,27.57,0,2.67.33,5.01.84,7.19-9.19-1.17-15.71-5.01-15.71-13.37Zm18.72-48.46c-1.17,4.68-1.67,10.53-1.34,17.21h-16.04c-.17-8.52,7.02-14.2,17.38-17.21Zm-3.01,61.83c1.84.17,3.84.33,5.85.33,12.2,0,24.73-1.34,31.08-11.87v-25.9l-17.21,2.67c8.86-5.35,17.21-10.7,17.55-23.06v-.5c0-1,0-2.01-.17-3.01,8.36,2.84,14.2,9.02,14.2,20.72v50.3h-14.04l-.33-19.39h-.17c-3.01,14.2-11.03,21.39-21.39,21.39-8.02,0-13.54-3.68-15.37-11.7Zm19.72-63.84c-6.02,0-11.7.67-16.71,2.01,2.51-9.02,8.19-14.04,17.55-14.04,10.03,0,15.37,6.52,16.54,14.54-5.18-1.84-11.2-2.51-17.38-2.51Z"/>
      <path d="m702.22,63.01c0-10.19,8.02-17.05,28.24-20.22l7.19-1.17c-10.03,6.02-20.56,11.87-20.56,27.57,0,2.67.33,5.01.84,7.19-9.19-1.17-15.71-5.01-15.71-13.37Zm18.72-48.46c-1.17,4.68-1.67,10.53-1.34,17.21h-16.04c-.17-8.52,7.02-14.2,17.38-17.21Zm-3.01,61.83c1.84.17,3.84.33,5.85.33,12.2,0,24.73-1.34,31.08-11.87v-25.9l-17.21,2.67c8.86-5.35,17.21-10.7,17.55-23.06v-.5c0-1,0-2.01-.17-3.01,8.36,2.84,14.2,9.02,14.2,20.72v50.3h-14.04l-.33-19.39h-.17c-3.01,14.2-11.03,21.39-21.39,21.39-8.02,0-13.54-3.68-15.37-11.7Zm19.72-63.84c-6.02,0-11.7.67-16.71,2.01,2.51-9.02,8.19-14.04,17.55-14.04,10.03,0,15.37,6.52,16.54,14.54-5.18-1.84-11.2-2.51-17.38-2.51Z"/>
      <path d="m346.92,23.87h-4.57c-1.89,0-3.45,1.56-3.45,3.45v35.32c0,1.89,1.56,3.45,3.45,3.45h4.46c1.89,0,3.45,1.56,3.45,3.45v13.82c0,1.67-1.56,3.45-3.45,3.45h-5.46c-1.89,0-3.45-1.56-3.45-3.45v-13.71c0-1.89-1.56-3.45-3.45-3.45s-3.45,1.56-3.45,3.45v13.71c0,1.89-1.56,3.45-3.45,3.45h-5.46c-1.89,0-3.45-1.56-3.45-3.45v-13.82c0-1.89,1.56-3.45,3.45-3.45h4.35c1.89,0,3.45-1.56,3.45-3.45V27.33c0-1.89-1.56-3.45-3.45-3.45h-4.23c-1.89,0-3.45-1.56-3.45-3.45V6.6c0-1.89,1.56-3.45,3.45-3.45h5.46c1.89,0,3.45,1.56,3.45,3.45v13.82c0,1.89,1.56,3.45,3.45,3.45s3.45-1.56,3.45-3.45V6.6c0-1.89,1.56-3.45,3.45-3.45h5.46c1.89,0,3.45,1.56,3.45,3.45v13.82c0,1.89-1.56,3.45-3.45,3.45Z"/>
      <path d="m472.03,23.87h-4.57c-1.89,0-3.45,1.56-3.45,3.45v35.32c0,1.89,1.56,3.45,3.45,3.45h4.46c1.89,0,3.45,1.56,3.45,3.45v13.82c0,1.67-1.56,3.45-3.45,3.45h-5.46c-1.89,0-3.45-1.56-3.45-3.45v-13.71c0-1.89-1.56-3.45-3.45-3.45s-3.45,1.56-3.45,3.45v13.71c0,1.89-1.56,3.45-3.45,3.45h-5.46c-1.89,0-3.45-1.56-3.45-3.45v-13.82c0-1.89,1.56-3.45,3.45-3.45h4.35c1.89,0,3.45-1.56,3.45-3.45V27.33c0-1.89-1.56-3.45-3.45-3.45h-4.23c-1.89,0-3.45-1.56-3.45-3.45V6.6c0-1.89,1.56-3.45,3.45-3.45h5.46c1.89,0,3.45,1.56,3.45,3.45v13.82c0,1.89,1.56,3.45,3.45,3.45s3.45-1.56,3.45-3.45V6.6c0-1.89,1.56-3.45,3.45-3.45h5.46c1.89,0,3.45,1.56,3.45,3.45v13.82c0,1.89-1.56,3.45-3.45,3.45"/>
      <path d="m565.51,53.5c0,.05-.01.1-.02.16,0,.06-.02.12-.02.17-.01.11-.03.21-.04.32-.02.19-.05.37-.06.56-.04.39-.05.77-.06,1.16,0,.04,0,.08,0,.13,0,6.37,2.62,11.08,7.87,14.14,5.25,3.05,11.83,4.58,19.74,4.58,5.17,0,9.8-.61,13.89-1.82,4.08-1.21,7.28-2.92,9.58-5.13,2.3-2.21,3.45-4.79,3.45-7.74s-1.06-5.17-3.18-6.99c-3.41-2.92-7.55-4.11-11.87-5.11-4.69-1.08-9.46-1.71-14.21-2.44-9.34-1.43-20.11-3.14-27.38-9.63-3.16-2.81-4.73-7.81-4.73-12.71,0-4.37,1.22-8.24,3.65-11.61,2.43-3.37,6.13-6,11.09-7.9,4.97-1.89,11.07-2.84,18.31-2.84,5.95,0,11.59.89,16.91,2.68,5.33,1.79,9.67,4.57,13.03,8.33,3.36,3.76,5.04,8.49,5.04,14.17,0,1.67-.41,3.31-.66,4.95-.04.23-.08.36-.23.53-.1.11-.21.23-.31.34-.31.34-.62.67-.93,1.01-.65.7-1.3,1.4-1.97,2.08-.1.1-.24.3-.38.35-.11.04-.43-.28-.51-.34-.65-.51-1.27-1.04-1.89-1.59-.31-.27-.61-.55-.91-.84-.2-.19-.62-.49-.62-.81,0-.49.02-.78.02-1.26,0-3.9-1.15-7.2-3.45-9.91-2.3-2.71-5.45-4.75-9.43-6.12-3.98-1.37-8.46-2.05-13.42-2.05s-9.45.55-13,1.66c-3.54,1.11-6.19,2.63-7.95,4.58-1.76,1.95-2.64,4.16-2.64,6.63,0,3.11,1.05,5.61,3.14,7.5,5.18,4.68,12.25,5.2,18.81,6.2,8.14,1.24,16.46,2.67,24.29,5.25,4.86,1.61,8.61,4.41,11.25,7.07,2.64,2.66,3.96,6.09,3.96,10.31,0,7.95-3.17,14.09-9.51,18.44-6.33,4.35-15.4,6.52-27.19,6.52-6.52,0-12.52-1.03-18-3.08-5.48-2.05-9.88-5.09-13.19-9.12-3.31-4.03-4.97-8.88-4.97-14.57,0-.47.01-.93.03-1.4s.06-.95.1-1.42.1-.95.17-1.43.15-.96.24-1.44c.05-.26.1-.51.15-.77,0-.03.05-.07.08-.09.03-.03.06-.06.1-.1.1-.1.19-.2.29-.29.13-.13.27-.27.4-.4.16-.16.32-.32.48-.48.18-.18.35-.35.53-.53s.37-.37.55-.55.36-.36.55-.54c.17-.17.34-.33.51-.5.15-.15.3-.29.45-.43.12-.11.24-.23.36-.34.08-.07.16-.15.24-.21.02-.02.05-.05.08-.06.04-.01.1.08.12.1.09.09.17.2.24.3.12.15.23.3.34.46.14.19.27.38.4.57.15.21.29.42.44.63s.3.44.45.66.28.42.43.63c.13.19.25.38.38.56.1.15.2.3.3.45.06.1.13.19.19.29.02.04.05.07.06.11,0,0,0,.01,0,.02Z"/>
      <path d="m666.93,87.36c-7.73,0-12.92-3.68-12.92-9.17,0-7.59,6.07-7.69,10.94-7.78,3.89-.07,6.27-.23,6.27-2.59,0-2.15-2.71-3.39-5.85-4.82-4.13-1.88-9.27-4.23-9.27-9.85,0-7.06,3.26-9.17,6.42-11.2,3.4-2.19,6.92-4.45,6.92-13.3,0-2.08-.6-3.65-1.82-4.82-3.35-3.19-10.98-2.81-18.36-2.44-7.69.38-14.95.74-18.41-2.55-1.31-1.24-1.97-2.95-1.97-5.07,0-5.99,6.46-13.14,37.26-13.14,28.74,0,41.55,3.07,41.55,9.94,0,4.93-3.16,6.85-11.26,6.85s-14.44-1.54-21.25-3.17c-7.95-1.91-16.17-3.88-28.2-3.88-3.15,0-10.58,1.58-10.58,3.74,0,1.34,7.93,1.38,13.71,1.4,13.89.06,32.91.13,32.91,10.39,0,4.5-2.03,7.28-4.18,10.23-2.49,3.41-5.07,6.94-5.07,13.72,0,7.94,2.55,12.57,4.8,16.66,1.78,3.23,3.47,6.29,3.47,10.37,0,6.28-6.08,10.49-15.13,10.49Z"/>
      <path d="m491,50.76c2.64,0,4.51-2.34,4.51-5.43v-1.06c0-2.66,2.75-4.79,5.5-5.32-3.08,0-5.5-2.34-5.5-5.43v-.11c0-3.62-2.42-6.17-5.61-6.38v-.11c3.19,0,5.61-1.06,5.61-6.49,0-3.19,2.97-5.32,6.71-5.32h-4.84c-3.19,0-5.61-2.34-5.61-5.43V3.2h6.71c3.19,0,6.71,2.34,6.71,5.43,0-3.09,3.52-5.43,6.71-5.43h13.3c3.19,0,5.61,2.23,5.61,6.49,0-3.09,2.42-6.49,5.61-6.49h6.71v7.55c0,2.87-2.09,5-4.84,5.43,2.75.43,4.84,3.4,4.84,6.38v6.49h-6.71c-3.41,0-5.61-2.34-5.61-5.43v-2.02c0-3.09-2.42-5.43-5.61-5.43h-1.1c-3.41,0-5.61-2.34-5.61-5.43-.55,2.55-2.75,4.36-5.5,4.36-2.31,0-4.07,2.34-4.07,5.43v1.06c0,3.09-2.42,5.43-5.61,5.43h-1.1c4.29,0,6.71,2.34,6.71,5.43v1.17c0,3.09,2.42,5.43,5.61,5.43h.99c2.86,0,5.94,1.92,6.6,4.47.66-2.55,3.74-4.47,6.6-4.47h6.71v6.49c0,3.09-2.42,5.43-5.61,5.43h-.99c-3.74,0-6.38,2.34-6.6,5.43h-.11c0-3.09-2.86-5.43-6.71-5.43h-.99c-2.97,0-5.28-2.02-5.61-4.79-.33,2.66-2.64,4.57-5.5,4.57-3.19,0-5.61,2.34-5.61,5.43v1.06c0,3.09-2.97,5.21-5.61,5.43,1.98,0,5.61,2.66,5.61,5.43v1.06c0,3.09,1.87,5.43,4.4,5.43,3.19,0,6.71,2.34,6.71,5.43,0-3.09,3.52-5.43,6.71-5.43h1.1c3.19,0,5.61-1.92,5.61-4.36,0-3.09,3.52-5.43,6.71-5.43h1.43c3.19,0,5.61-2.34,5.61-5.43v-1.06c0-3.09,3.52-5.43,6.71-5.43h6.71v6.49c0,3.09-2.42,5.43-5.61,5.43h-1.54c3.41,0,6.71,2.34,6.71,5.43v6.49h-7.81c-2.86,0-5.17-1.91-5.5-4.68-.44,2.77-2.75,4.68-5.61,4.68h-2.2c-3.19,0-5.61,1.92-5.61,4.36,0,3.09-2.42,5.43-5.61,5.43h-15.61c-3.19,0-5.61-2.34-5.61-5.43v-1.06c0-3.09-2.31-5.43-5.5-5.43s-5.61-2.34-5.61-5.43v-12.98c0-3.09,3.52-5.43,6.71-5.43Z"/>
    </g>
  </g>
</svg>