<?xml version="1.0" encoding="UTF-8"?>
<svg id="Capa_2" data-name="Capa 2" xmlns="http://www.w3.org/2000/svg" viewBox="0 0 415.28 280.73">
  <defs>
    <style>
      .cls-1 {
        fill: #5757f7;
      }
    </style>
  </defs>
  <g id="Capa_1-2" data-name="Capa 1">
    <g>
      <path class="cls-1" d="m121.8,280.73c-1.05,0-2.1-.27-3.05-.82L3.02,212.76c-1.87-1.09-3.02-3.08-3.02-5.25V73.22c0-2.16,1.15-4.16,3.02-5.25L118.83.82c1.87-1.09,4.18-1.09,6.06-.02l59.03,33.8c2.91,1.66,3.92,5.37,2.25,8.28-1.66,2.91-5.37,3.92-8.28,2.25L121.89,13.07,12.14,76.71v127.3l109.67,63.63,63.96-36.88-25.82-15.56-35.09,20.49c-1.91,1.12-4.29,1.1-6.18-.04l-75.44-45.32c-1.83-1.1-2.94-3.07-2.94-5.2v-89.53c0-2.16,1.15-4.16,3.02-5.25l75.44-43.75c2.9-1.68,6.61-.69,8.29,2.21,1.68,2.9.69,6.61-2.21,8.29l-72.41,41.99v82.6l69.41,41.7,26.26-15.33-29.43-17.74c-1.82-1.1-2.94-3.07-2.94-5.2v-43.79c0-2.15,1.14-4.14,2.99-5.23l77.61-45.74c1.88-1.11,4.2-1.12,6.09-.04,1.89,1.08,3.06,3.09,3.06,5.27v89.53c0,2.16-1.15,4.15-3.01,5.24l-30.58,17.86,28.96,17.45c1.84,1.11,2.96,3.11,2.94,5.26-.02,2.15-1.18,4.13-3.04,5.2l-75.92,43.78c-.94.54-1.99.81-3.03.81Zm6.07-99.02l32.18,19.39,33.3-19.44v-75.42l-65.48,38.59v36.89Z"/>
      <g>
        <path class="cls-1" d="m255.34,70.69V3.23h43.1v11.89h-28.61v15.46h27.64v11.89h-27.64v16.33h28.61v11.89h-43.1Z"/>
        <path class="cls-1" d="m311.87,70.69V20.82h14.3v9.08h.58c2.22-5.61,6.67-10.24,14.69-10.24,9.57,0,16.24,6.67,16.24,18.75v32.28h-14.3v-30.35c0-6.28-2.8-9.66-8.41-9.66-4.45,0-8.79,2.42-8.79,7.25v32.76h-14.3Z"/>
        <path class="cls-1" d="m255.34,173.38v-67.46h44.75v11.89h-30.25v15.46h27.06v11.89h-27.06v28.22h-14.5Z"/>
        <path class="cls-1" d="m312.16,162.26h15.27v-49.29h-15.27v-11.11h29.57v60.4h15.27v11.11h-44.84v-11.11Z"/>
        <path class="cls-1" d="m400.98,164.29h-.58c-2.22,5.61-6.67,10.24-14.69,10.24-9.57,0-16.24-6.67-16.24-18.75v-32.28h14.3v30.35c0,6.28,2.8,9.66,8.41,9.66,4.45,0,8.79-2.42,8.79-7.25v-32.76h14.3v49.87h-14.3v-9.08Z"/>
        <path class="cls-1" d="m256.5,269.61h19.14v-46.97h-19.33v-11.11h33.63v54.8c0,8.41-4.93,14.4-15.17,14.4h-18.27v-11.11Zm17.69-71.23v-2.8c0-3.87,2.22-6.76,8.6-6.76s8.6,2.9,8.6,6.76v2.8c0,3.77-2.32,6.76-8.6,6.76s-8.6-3-8.6-6.76Z"/>
        <path class="cls-1" d="m309.55,236.46c0-16.14,9.47-26.09,25.03-26.09s25.03,9.95,25.03,26.09-9.47,26.09-25.03,26.09-25.03-9.95-25.03-26.09Zm35.28,3.96v-7.93c0-7.34-3.87-11.5-10.24-11.5s-10.24,4.16-10.24,11.5v7.93c0,7.34,3.87,11.5,10.24,11.5s10.24-4.16,10.24-11.5Z"/>
      </g>
    </g>
  </g>
</svg>