<?xml version="1.0" encoding="UTF-8"?>
<svg id="Capa_2" data-name="Capa 2" xmlns="http://www.w3.org/2000/svg" viewBox="0 0 235.07 235.07">
  <defs>
    <style>
      .cls-1 {
        fill: #f24125;
      }

      .cls-2 {
        fill: #f9f8e5;
      }
    </style>
  </defs>
  <g id="Capa_1-2" data-name="Capa 1">
    <g>
      <circle class="cls-1" cx="117.53" cy="117.53" r="117.53"/>
      <g>
        <path class="cls-2" d="m37.63,113.11c0-15.92,13.32-26.94,27.74-26.94s27.84,11.01,27.84,26.94-13.32,27.14-27.84,27.14-27.74-11.31-27.74-27.14Zm41.26,0c0-9.31-5.91-14.92-13.52-14.92s-13.42,5.61-13.42,14.92,5.91,15.12,13.42,15.12,13.52-5.81,13.52-15.12Z"/>
        <path class="cls-2" d="m121.64,98.29h-25.03v-11.21h43.16v1.1l-26.33,60.58h-13.92l22.13-50.47Z"/>
        <path class="cls-2" d="m141.87,113.11c0-15.92,13.32-26.94,27.74-26.94s27.84,11.01,27.84,26.94-13.32,27.14-27.84,27.14-27.74-11.31-27.74-27.14Zm41.25,0c0-9.31-5.91-14.92-13.52-14.92s-13.42,5.61-13.42,14.92,5.91,15.12,13.42,15.12,13.52-5.81,13.52-15.12Z"/>
      </g>
    </g>
  </g>
</svg>