<svg data-name="Capa 2" xmlns="http://www.w3.org/2000/svg" viewBox="0 0 23.25 20.35"><path d="M23.25 11.39c-.13.44-.27.87-.38 1.32-.4 1.62-1.21 3.01-2.31 4.25a10.04 10.04 0 0 1-4.55 2.93 9.68 9.68 0 0 1-6.5-.2c-1.26-.48-2.39-1.17-3.41-2.13.77-1.02 1.53-2.05 2.3-3.07 3.08 2.91 6.72 2.2 8.79.37 2.11-1.87 2.89-5.07 1.26-7.92-.67-1.17-1.66-1.99-2.9-2.54-.91-.41-1.87-.57-2.83-.53-1.76.07-3.28.78-4.43 2.1-1.01 1.16-1.52 2.56-1.51 3.64h2.85c-.41.56-.75 1.05-1.12 1.53-1.16 1.54-2.33 3.06-3.48 4.61-.19.26-.3.26-.49 0-1.45-1.93-2.9-3.85-4.35-5.77-.07-.09-.12-.21-.2-.34h2.73c.33-1.17.57-2.31.97-3.4.63-1.75 1.8-3.13 3.28-4.25C8.17 1.08 9.52.5 10.98.19c1.21-.26 2.44-.23 3.67-.05 1.46.22 2.8.73 4.02 1.56 2.34 1.59 3.78 3.78 4.39 6.53.06.25.13.5.19.74v2.42Z" data-name="Capa 7"/></svg>