<?xml version="1.0" standalone="no"?>
<!DOCTYPE svg PUBLIC "-//W3C//DTD SVG 20010904//EN"
 "http://www.w3.org/TR/2001/REC-SVG-20010904/DTD/svg10.dtd">
<svg version="1.0" xmlns="http://www.w3.org/2000/svg"
 width="1080.000000pt" height="1080.000000pt" viewBox="0 0 1080.000000 1080.000000"
 preserveAspectRatio="xMidYMid meet">
<metadata>
Created by potrace 1.14, written by Peter Selinger 2001-2017
</metadata>
<g transform="translate(0.000000,1080.000000) scale(0.100000,-0.100000)"
fill="#000000" stroke="none">
<path d="M5134 10122 c-30 -20 -34 -55 -34 -286 l0 -236 -243 0 c-233 0 -245
-1 -268 -21 -24 -20 -24 -24 -29 -242 -3 -122 -2 -255 2 -296 11 -115 0 -111
310 -111 l258 0 0 -511 0 -511 -32 7 c-87 19 -212 121 -289 235 -43 63 -91
223 -96 319 -2 46 -10 93 -18 105 -8 11 -19 43 -26 69 -9 39 -26 63 -83 122
-42 43 -95 85 -131 104 -123 65 -328 193 -384 239 -24 21 -62 50 -85 66 -22
15 -50 40 -62 54 -16 20 -26 24 -47 18 -44 -11 -36 -49 22 -105 27 -26 51 -56
55 -67 4 -10 31 -36 61 -57 54 -37 148 -144 177 -202 38 -73 71 -211 75 -310
4 -83 1 -111 -17 -165 -12 -36 -24 -104 -27 -152 -3 -48 -9 -85 -14 -82 -24
15 -69 116 -75 170 -9 81 -18 96 -57 92 l-32 -3 1 -80 c0 -63 5 -89 23 -124
12 -23 18 -40 13 -37 -6 3 -24 39 -41 80 -28 68 -31 84 -31 183 0 105 -12 206
-29 248 -46 112 -105 202 -160 242 -29 22 -223 113 -240 113 -22 0 -139 74
-166 105 -16 19 -40 36 -53 38 -28 4 -38 18 -53 72 -20 73 -68 100 -91 50 -9
-20 -5 -39 21 -112 65 -178 99 -243 186 -357 112 -147 158 -259 178 -439 7
-62 17 -118 21 -125 9 -15 1 -15 -44 -2 -41 12 -70 5 -70 -17 0 -9 -15 4 -32
29 -41 56 -141 144 -188 165 -125 55 -180 84 -220 115 -25 19 -53 39 -62 44
-16 9 -94 82 -113 106 -6 7 -17 29 -25 48 -7 19 -22 47 -32 62 -10 14 -18 30
-18 35 0 5 -33 43 -73 84 -41 41 -88 95 -106 121 -34 51 -71 69 -97 47 -30
-25 -2 -77 101 -189 82 -89 107 -146 124 -285 12 -91 39 -159 102 -255 47 -70
71 -96 140 -148 83 -63 139 -154 158 -257 10 -59 23 -275 16 -275 -2 0 -19 14
-37 30 -48 45 -152 94 -259 124 -264 73 -334 106 -391 181 -37 50 -62 66 -85
58 -22 -8 -14 -47 20 -103 26 -45 44 -61 95 -88 74 -40 167 -122 192 -172 25
-49 40 -129 40 -210 0 -87 15 -157 50 -234 33 -74 105 -178 157 -227 53 -50
246 -163 315 -185 46 -14 55 -20 47 -31 -7 -7 -16 -13 -21 -13 -5 0 -57 -32
-116 -72 -140 -93 -267 -217 -347 -338 -84 -127 -114 -190 -170 -350 -26 -74
-58 -164 -72 -200 -13 -36 -31 -92 -38 -125 -7 -33 -20 -87 -29 -120 -33 -129
-55 -361 -51 -555 1 -102 6 -208 10 -235 l7 -51 -54 -27 c-29 -15 -57 -27 -61
-27 -10 0 -70 42 -79 56 -4 5 -46 44 -95 86 -364 315 -355 307 -379 287 -21
-17 -17 -48 11 -85 14 -18 25 -35 25 -38 0 -8 70 -106 97 -136 13 -14 23 -30
23 -36 0 -11 33 -65 99 -162 20 -29 43 -63 51 -77 8 -13 34 -53 57 -89 l42
-66 -30 0 c-44 0 -195 -64 -263 -112 -33 -23 -75 -59 -94 -80 -39 -43 -52 -46
-90 -20 -15 10 -43 25 -62 32 -19 8 -37 16 -40 20 -3 3 -39 23 -80 43 -41 21
-89 47 -106 57 -97 57 -175 91 -194 85 -41 -13 -17 -63 93 -187 45 -51 118
-136 161 -188 43 -52 94 -110 112 -129 19 -18 34 -37 34 -42 0 -4 -15 -11 -32
-14 -59 -9 -352 -53 -408 -60 -30 -4 -59 -11 -65 -15 -5 -5 -21 -10 -34 -12
-16 -2 -25 -11 -27 -25 -4 -23 4 -31 33 -38 197 -47 365 -86 431 -100 45 -10
82 -23 82 -29 0 -6 -12 -20 -27 -31 -16 -11 -41 -32 -56 -47 -15 -15 -42 -37
-60 -50 -18 -12 -48 -37 -67 -54 -19 -18 -64 -55 -100 -83 -35 -29 -83 -69
-105 -89 -22 -21 -50 -45 -62 -53 -12 -8 -48 -39 -79 -68 -54 -51 -55 -53 -38
-72 19 -21 45 -24 72 -10 9 6 47 21 83 35 36 14 109 46 163 71 53 25 99 45
102 45 3 0 58 24 122 54 197 91 214 98 220 92 3 -3 -2 -36 -11 -73 -9 -38 -23
-108 -32 -158 -8 -49 -20 -112 -26 -140 -6 -27 -12 -65 -12 -82 -1 -18 -5 -33
-9 -33 -14 0 -8 -37 7 -50 35 -29 74 7 220 202 168 224 165 222 217 214 52 -7
219 17 278 40 41 16 43 16 53 -1 17 -31 89 -105 119 -123 32 -19 35 -34 11
-53 -9 -8 -22 -27 -30 -44 -7 -16 -18 -37 -23 -45 -33 -51 -99 -172 -105 -192
-4 -13 -15 -34 -25 -48 -29 -42 -110 -201 -110 -216 0 -8 -4 -14 -10 -14 -14
0 -12 -36 3 -47 26 -20 58 -13 75 17 9 17 21 30 26 30 5 0 105 97 223 215 119
118 217 215 218 215 2 0 1 -107 -2 -238 -5 -229 -4 -238 15 -255 19 -18 22
-18 44 -3 13 9 33 35 45 59 12 23 35 67 51 97 104 204 136 254 146 236 6 -10
28 -41 48 -68 21 -28 40 -59 43 -70 4 -10 10 -18 14 -18 4 0 13 -12 20 -27 13
-29 42 -67 185 -251 55 -70 106 -131 113 -135 7 -4 13 -13 13 -19 0 -13 94
-141 201 -273 22 -27 64 -80 92 -116 29 -36 86 -105 127 -154 41 -48 95 -113
119 -144 44 -54 173 -192 238 -253 60 -57 216 -177 249 -193 18 -8 36 -19 39
-24 7 -12 100 -64 145 -81 19 -7 76 -32 125 -56 175 -83 248 -107 376 -125
151 -22 265 7 419 105 122 78 355 296 427 400 23 34 72 104 108 156 36 52 94
136 129 185 35 50 92 137 126 195 35 58 93 148 130 200 37 52 75 109 86 127
10 18 51 77 89 133 39 55 84 122 100 149 17 26 44 70 62 97 18 27 65 100 105
162 40 63 76 116 80 118 6 4 111 -58 128 -76 18 -18 90 -70 98 -70 5 0 17 -9
28 -21 28 -31 50 -40 79 -33 31 8 33 38 5 74 -11 14 -20 28 -20 32 0 6 -123
205 -166 269 -13 19 -24 38 -24 41 0 3 48 8 108 11 59 3 144 13 190 23 46 9
84 15 86 13 3 -3 22 -266 41 -557 4 -68 16 -92 46 -92 24 0 42 38 63 135 42
195 49 224 66 300 10 44 26 118 34 164 9 47 18 86 20 88 2 2 14 6 26 8 12 2
25 7 28 9 5 6 42 -38 42 -49 0 -6 68 -123 119 -205 9 -14 24 -41 34 -60 61
-119 76 -136 114 -134 36 1 43 35 26 124 -23 120 -74 432 -71 435 2 1 24 10
50 20 26 9 56 26 67 36 23 22 41 25 41 7 0 -12 67 -108 138 -198 15 -19 38
-51 51 -70 13 -19 30 -39 37 -43 8 -4 14 -14 14 -21 0 -16 80 -106 95 -106 6
0 19 6 28 12 18 14 16 27 -59 288 -14 47 -31 108 -38 136 l-13 52 81 -62 c45
-34 112 -87 149 -117 128 -102 194 -154 217 -169 12 -8 33 -23 45 -32 35 -27
85 -21 85 10 0 13 -96 162 -173 267 -62 85 -174 243 -189 266 -13 21 -14 30
-5 49 14 27 5 28 125 -11 53 -17 111 -35 127 -40 145 -39 220 -60 275 -78 77
-25 94 -26 109 -7 18 22 -5 52 -69 88 -30 16 -64 38 -75 48 -11 9 -87 59 -168
110 l-148 93 235 231 235 231 -19 23 c-21 26 -47 28 -87 7 -39 -21 -161 -75
-168 -75 -3 0 -50 -21 -103 -46 -53 -25 -128 -57 -167 -71 -38 -15 -74 -29
-80 -33 -34 -23 -44 -19 -68 33 -28 60 -99 135 -198 209 -63 47 -89 78 -55 65
15 -6 24 13 45 88 6 22 22 78 36 126 14 47 25 92 25 100 0 7 11 52 26 99 42
137 43 141 38 155 -3 7 -13 16 -22 19 -9 3 -22 8 -29 12 -9 4 -123 -133 -123
-149 0 -3 -9 -16 -20 -29 -49 -57 -184 -236 -204 -270 -24 -44 -29 -45 -81
-18 -22 11 -47 20 -57 20 -10 0 -18 3 -18 6 0 3 27 61 60 128 33 68 60 126 60
129 0 5 25 60 126 274 19 39 34 78 34 86 0 8 -13 20 -29 25 -25 9 -33 7 -53
-11 -32 -31 -151 -167 -170 -194 -8 -13 -39 -50 -69 -84 -142 -159 -128 -147
-129 -119 0 14 7 70 15 125 48 318 12 732 -92 1059 -33 105 -181 408 -230 472
-86 115 -274 314 -294 314 -6 0 -15 4 -22 10 -49 40 -127 97 -187 136 -70 45
-85 64 -52 64 31 0 166 65 222 107 30 22 73 60 95 84 40 43 135 172 135 183 0
5 25 56 109 225 68 134 175 233 346 318 105 52 115 59 115 84 0 13 -10 20 -32
24 -71 13 -179 -30 -293 -116 -62 -47 -83 -55 -176 -68 -41 -6 -89 -13 -108
-17 l-34 -7 70 89 c95 123 130 183 160 277 14 45 41 105 59 133 36 57 136 144
165 144 13 0 19 7 19 23 0 56 -72 65 -139 17 -97 -71 -165 -163 -191 -261 -21
-76 -52 -131 -131 -234 -78 -102 -95 -118 -207 -192 -74 -48 -134 -79 -248
-126 l-81 -34 9 41 c9 42 49 135 67 158 5 7 25 31 43 53 46 56 78 102 78 114
0 5 4 11 8 13 13 5 72 117 93 176 29 84 52 239 46 313 -3 36 -24 123 -47 193
-40 122 -42 133 -38 227 3 74 8 103 21 117 25 27 21 60 -7 74 -35 15 -84 -16
-116 -72 -24 -45 -27 -71 -30 -287 0 -48 -76 -112 -321 -269 -72 -46 -145 -97
-162 -113 -18 -15 -53 -47 -78 -70 l-46 -41 -13 29 c-6 16 -42 58 -80 94 -50
47 -72 76 -79 104 -18 72 -18 160 2 186 13 19 138 73 354 152 179 66 241 113
201 153 -17 17 -39 15 -68 -5 -13 -9 -81 -36 -150 -59 -69 -23 -154 -54 -190
-69 -62 -26 -90 -38 -194 -85 -25 -11 -49 -20 -54 -20 -5 0 -20 -8 -33 -19
-13 -10 -35 -22 -49 -26 -34 -10 -177 -106 -220 -148 -124 -119 -179 -193
-218 -292 -6 -16 -26 -51 -44 -76 -18 -25 -38 -55 -45 -65 -10 -16 -12 -8 -12
48 -1 88 30 172 96 263 78 108 318 318 376 331 18 3 43 14 57 24 14 9 50 25
80 35 79 25 218 102 263 144 21 20 50 56 64 81 26 44 55 163 46 187 -6 16 -52
29 -62 17 -9 -10 -41 -111 -41 -128 0 -6 -8 -19 -18 -27 -11 -9 -25 -25 -33
-35 -26 -36 -98 -85 -182 -124 -71 -34 -95 -40 -149 -40 -99 0 -282 -56 -357
-110 -16 -11 -32 -20 -35 -20 -3 0 -6 47 -6 104 l0 104 238 4 c186 2 242 6
259 18 21 14 22 21 25 200 2 102 1 230 -2 284 -5 94 -6 100 -33 120 -27 20
-39 21 -238 19 l-209 -3 -2 198 c-1 108 -3 220 -3 247 0 28 -4 56 -8 63 -6 9
-84 12 -335 12 -180 0 -332 -4 -338 -8z m374 -84 c-17 -6 -28 -17 -28 -28 0
-10 12 -28 28 -39 l27 -20 -77 -1 c-118 0 -155 -24 -111 -72 13 -14 31 -18 85
-18 37 0 68 -3 68 -7 -1 -21 -20 -34 -64 -42 -53 -10 -51 -9 -60 -37 -11 -35
17 -54 79 -54 72 0 79 -17 11 -25 -33 -4 -57 -13 -60 -21 -6 -15 13 -54 26
-54 5 0 8 -4 8 -10 0 -5 -25 -10 -56 -10 -85 0 -116 -26 -77 -65 14 -15 40
-17 187 -16 185 2 236 0 251 -11 13 -8 65 2 65 13 0 5 88 9 195 9 l195 0 0
-45 0 -45 -770 0 -770 0 0 40 0 39 259 3 c143 2 263 7 268 11 4 5 9 117 10
250 0 133 2 248 2 255 1 9 41 12 169 11 124 0 160 -3 140 -11z m692 -720 l0
-38 -192 -1 c-106 0 -452 0 -768 0 l-575 -1 -2 36 -2 36 427 2 c235 2 581 3
770 3 l342 0 0 -37z m-172 -127 c146 -1 172 -3 172 -16 0 -13 -92 -15 -770
-15 -635 0 -770 2 -770 13 0 8 2 16 4 18 4 3 762 3 1364 0z m172 -119 c0 -12
-149 -22 -332 -22 -80 0 -153 -3 -161 -6 -8 -3 -17 -14 -20 -25 -6 -22 5 -22
-652 -4 -82 3 -201 5 -262 5 l-113 0 0 29 0 29 770 1 c448 1 770 -2 770 -7z
m-2755 -92 c3 -5 74 -43 158 -83 128 -62 159 -81 195 -122 85 -96 109 -173
121 -382 8 -150 8 -153 49 -235 52 -106 83 -140 128 -144 23 -1 37 2 41 12 9
24 150 -111 208 -201 65 -100 111 -144 157 -151 31 -5 36 -3 41 17 5 18 -1 29
-27 51 -19 15 -48 51 -66 80 -18 29 -52 82 -76 118 -24 36 -48 88 -54 115 -14
62 -5 182 21 272 39 138 8 366 -72 516 l-30 57 53 -31 c29 -18 70 -41 90 -52
63 -34 149 -107 171 -145 37 -63 59 -134 68 -218 13 -132 56 -278 102 -350 33
-52 169 -189 215 -217 20 -13 64 -31 97 -41 102 -31 176 -69 217 -111 70 -73
134 -176 153 -247 10 -37 20 -67 24 -66 3 1 14 -2 24 -7 26 -11 50 13 43 44
-2 14 -10 50 -16 79 -11 52 -79 172 -113 200 -9 8 -32 42 -52 77 -29 53 -35
73 -35 123 0 63 18 127 47 167 23 32 28 31 43 -5 14 -34 37 -50 71 -50 20 0
21 3 14 53 -14 99 -9 138 27 204 55 103 93 163 101 163 5 0 27 15 50 34 23 19
78 55 122 81 44 26 89 54 100 63 11 9 -14 -17 -55 -58 -41 -42 -88 -95 -105
-120 -16 -25 -32 -47 -35 -50 -9 -9 -28 -54 -51 -118 -20 -56 -21 -76 -16
-186 7 -154 33 -227 105 -296 50 -48 96 -124 146 -242 29 -71 30 -78 30 -223
0 -84 -4 -161 -10 -175 -10 -21 -13 -14 -23 60 -14 99 -57 244 -77 260 -7 7
-23 10 -36 8 -34 -5 -34 -50 -2 -165 24 -85 28 -116 28 -238 0 -131 -2 -143
-26 -190 -14 -27 -35 -58 -46 -68 l-21 -19 15 54 c18 70 18 153 -2 225 -9 32
-25 92 -36 133 -23 88 -36 105 -72 96 -22 -5 -26 -12 -26 -44 0 -20 12 -80 26
-132 27 -98 36 -237 17 -262 -5 -7 -18 -35 -27 -61 -30 -80 -82 -126 -192
-168 -24 -8 -23 -6 10 33 76 89 100 224 61 356 -26 92 -109 182 -154 167 -32
-10 -31 -32 4 -78 80 -105 100 -232 50 -322 -15 -28 -37 -61 -49 -73 -21 -24
-95 -67 -101 -60 -2 2 8 28 22 57 55 111 25 326 -59 417 -48 52 -91 70 -113
48 -20 -20 -19 -27 6 -50 62 -56 99 -149 99 -247 0 -108 -37 -177 -85 -155
-21 9 -21 12 -9 49 18 52 11 109 -21 172 -45 86 -83 126 -143 153 -31 14 -80
41 -109 60 -58 39 -86 41 -91 7 -4 -30 64 -95 137 -128 49 -23 63 -36 99 -93
34 -54 42 -75 42 -114 0 -32 -4 -48 -12 -48 -21 0 -33 13 -37 40 -10 72 -72
141 -171 191 -55 28 -80 34 -160 40 -52 4 -113 12 -135 18 -22 7 -65 18 -95
25 -64 15 -90 27 -145 70 -54 42 -66 57 -126 156 -28 47 -54 87 -58 90 -3 3
-15 22 -25 43 -26 50 -134 177 -151 177 -18 0 -47 -30 -42 -44 3 -6 33 -54 68
-107 74 -111 116 -177 144 -229 44 -81 125 -159 212 -204 49 -25 241 -68 338
-75 80 -7 97 -12 153 -45 54 -32 110 -92 98 -104 -2 -2 -26 6 -53 17 -68 28
-211 68 -328 91 -187 37 -205 42 -205 56 0 8 -28 28 -62 45 -46 23 -79 49
-123 100 -65 76 -89 89 -113 65 -15 -15 -15 -20 7 -62 13 -24 50 -69 82 -98
l58 -54 -51 -4 c-47 -5 -53 -3 -76 23 -13 16 -28 29 -33 29 -19 0 -90 87 -140
173 -48 80 -70 127 -86 182 -10 33 -24 45 -56 45 l-30 0 6 -52 c4 -34 24 -89
56 -153 58 -116 67 -129 142 -207 40 -41 51 -59 41 -63 -8 -3 -20 -1 -26 4 -6
5 -31 15 -56 22 -108 31 -284 176 -344 283 -75 134 -100 192 -126 296 -5 19
-12 89 -15 155 -4 66 -13 152 -21 190 -20 99 -80 202 -151 262 -108 91 -157
148 -200 234 -23 46 -45 95 -49 109 l-6 25 28 -26 c73 -65 163 -124 276 -181
155 -77 194 -108 263 -213 62 -95 64 -96 93 -89 28 8 35 31 19 64 l-14 27 41
-15 c23 -9 57 -27 76 -41 19 -14 40 -28 48 -31 8 -3 35 -37 60 -75 47 -69 101
-120 282 -265 84 -68 96 -82 128 -149 19 -41 43 -118 54 -170 21 -106 43 -140
79 -121 29 16 27 144 -5 236 -50 146 -69 175 -174 260 -53 43 -122 98 -153
121 -59 44 -92 85 -159 189 -75 119 -80 132 -96 253 -26 200 -82 336 -194 471
-43 52 -110 151 -110 162 0 12 38 10 45 -2z m2235 -84 l0 -23 -192 -1 c-220
-2 -248 1 -248 29 0 18 10 19 220 19 l220 0 0 -24z m2 -156 c-2 -34 -10 -51
-30 -68 -109 -93 -223 -235 -262 -327 -19 -44 -92 -146 -129 -179 l-21 -19 0
101 0 101 63 3 c56 3 62 5 65 25 4 27 -29 43 -89 43 -28 0 -39 4 -39 15 0 15
16 19 54 15 28 -3 67 10 61 19 -3 5 1 11 7 14 26 10 -20 39 -73 47 l-54 8 46
1 c73 2 109 12 109 30 0 35 -18 45 -84 49 -95 6 -81 22 20 22 65 0 89 4 101
16 27 27 4 48 -63 57 -32 4 -74 6 -91 3 -32 -4 -33 -3 -33 35 l0 39 223 -2
222 -3 -3 -45z m1602 -156 c21 -82 20 -160 -4 -269 -19 -82 -71 -203 -119
-273 -10 -15 -24 -37 -32 -49 -8 -11 -34 -47 -59 -80 -25 -32 -53 -70 -63 -85
-24 -38 -47 -132 -47 -194 0 -45 -3 -54 -27 -69 -63 -42 -192 -183 -193 -212
0 -4 -10 -19 -21 -33 -13 -15 -19 -18 -15 -8 3 9 -3 27 -13 39 -14 17 -24 20
-44 15 -15 -3 -27 -12 -27 -19 0 -27 -62 -142 -101 -186 -41 -47 -128 -121
-142 -121 -4 0 22 40 57 89 75 101 106 166 106 221 0 40 -11 50 -55 50 -18 0
-25 -8 -34 -43 -7 -24 -26 -66 -42 -93 -33 -54 -33 -52 1 81 10 39 21 117 25
175 4 58 17 146 30 195 23 90 111 339 143 405 34 71 169 187 362 315 102 67
207 145 235 173 27 29 53 48 56 44 4 -4 15 -35 23 -68z m-996 -5 c1 -110 25
-162 116 -246 71 -66 88 -97 88 -155 -1 -38 -33 -144 -72 -233 -21 -50 -50
-143 -76 -248 -8 -32 -17 -106 -20 -165 -7 -127 -18 -158 -28 -78 -7 56 -23
76 -60 76 -29 0 -34 -32 -24 -137 9 -90 7 -110 -11 -182 -33 -126 -81 -226
-123 -254 l-35 -24 18 36 c56 115 73 206 74 386 0 174 -10 218 -55 233 -45 16
-55 -4 -43 -81 13 -78 7 -236 -12 -345 -16 -92 -56 -175 -120 -250 -43 -49
-54 -50 -27 -1 26 46 88 247 103 336 11 66 10 99 -7 223 -16 116 -122 337
-188 392 -34 27 -36 33 -36 86 0 80 41 162 115 230 54 50 57 55 52 89 -11 67
65 152 288 320 7 6 63 35 82 42 0 1 1 -22 1 -50z m-2168 -500 c15 -28 5 -23
-15 7 -9 15 -12 23 -6 20 6 -4 16 -16 21 -27z m-1224 -358 c39 -10 93 -31 120
-47 50 -29 214 -179 214 -196 0 -22 125 -256 158 -297 19 -23 65 -68 101 -97
56 -46 65 -59 63 -82 -3 -19 4 -33 25 -50 22 -19 15 -17 -35 9 -35 19 -92 62
-127 97 -61 60 -85 71 -114 53 -33 -21 33 -116 120 -172 55 -35 60 -50 7 -24
-68 35 -154 98 -194 142 -35 39 -45 45 -68 39 -40 -10 -34 -47 15 -101 l41
-44 -77 44 c-91 51 -105 63 -159 135 -86 113 -126 212 -126 315 0 84 -37 253
-61 280 -15 16 -10 27 9 20 9 -4 49 -15 88 -24z m4820 -3 c-8 -13 -36 -66 -61
-118 -136 -281 -155 -312 -232 -383 -55 -51 -67 -56 -52 -23 9 19 9 29 0 40
-27 32 -51 26 -109 -27 -32 -29 -88 -75 -127 -101 -38 -27 -74 -55 -80 -61
-11 -13 -118 -55 -138 -55 -7 1 15 14 48 31 99 50 133 79 213 182 57 72 82
120 82 156 0 61 -59 64 -90 5 -46 -89 -129 -185 -203 -234 -67 -45 -86 -51
-54 -16 74 79 120 178 121 260 1 39 -1 41 -32 44 -35 4 -40 -3 -86 -128 -15
-42 -143 -206 -153 -196 -3 2 7 42 21 89 49 160 158 281 329 364 189 93 454
176 611 192 5 1 1 -9 -8 -21z m-1061 -595 c-9 -32 -20 -65 -24 -73 -10 -19
-104 -66 -151 -75 -35 -7 -35 -7 20 35 30 24 80 73 110 110 30 37 57 66 59 64
2 -1 -4 -29 -14 -61z m-345 -153 c0 -5 -2 -10 -4 -10 -3 0 -8 5 -11 10 -3 6
-1 10 4 10 6 0 11 -4 11 -10z m587 -66 c-3 -3 -12 -4 -19 -1 -8 3 -5 6 6 6 11
1 17 -2 13 -5z m70 0 c-3 -3 -12 -4 -19 -1 -8 3 -5 6 6 6 11 1 17 -2 13 -5z
m942 -974 c0 -10 -3 -8 -9 5 -12 27 -12 43 0 25 5 -8 9 -22 9 -30z m-649 -218
c-11 -42 -32 -101 -45 -130 -14 -29 -25 -56 -25 -60 0 -4 -16 -25 -35 -47 -33
-38 -35 -39 -41 -17 -7 23 -49 41 -64 26 -11 -11 -28 -81 -36 -147 -3 -27 -13
-55 -22 -63 -49 -44 -117 -86 -183 -114 -41 -18 -99 -43 -129 -56 -74 -32
-190 -74 -190 -69 0 3 35 29 79 60 76 53 234 188 277 236 12 13 38 39 58 58
20 18 49 50 64 69 15 20 44 53 64 74 35 35 97 125 149 215 13 23 40 68 59 102
l35 60 3 -60 c2 -38 -5 -88 -18 -137z m664 182 c3 -8 2 -12 -4 -9 -6 3 -10 10
-10 16 0 14 7 11 14 -7z m-894 -218 c0 -3 -4 -8 -10 -11 -5 -3 -10 -1 -10 4 0
6 5 11 10 11 6 0 10 -2 10 -4z m1261 -789 c-16 -35 -33 -72 -39 -83 -48 -89
-81 -177 -87 -235 l-6 -67 52 -12 c109 -26 410 -197 497 -282 40 -39 101 -125
108 -152 3 -15 14 -31 24 -36 23 -12 75 -13 98 -1 34 18 173 81 178 81 5 0 79
33 160 71 23 10 47 19 53 19 7 0 -65 -76 -159 -170 l-171 -170 16 -30 c15 -29
46 -51 225 -165 41 -26 66 -45 55 -42 -11 4 -76 23 -145 43 -69 20 -132 38
-140 39 -8 2 -41 9 -72 16 -62 13 -64 13 -106 -48 -30 -42 -28 -57 13 -114 19
-26 64 -92 101 -146 37 -54 78 -111 91 -127 13 -16 22 -31 19 -33 -5 -6 -52
27 -166 117 -192 152 -227 174 -255 163 -12 -4 -15 -15 -11 -47 6 -49 13 -83
19 -94 3 -4 8 -24 11 -45 3 -21 15 -73 26 -115 11 -41 19 -77 17 -78 -1 -1
-38 45 -81 102 -44 58 -97 122 -118 143 -21 21 -38 44 -38 49 0 17 -34 32 -58
25 -12 -3 -27 -15 -35 -27 -8 -11 -38 -29 -66 -40 -29 -10 -55 -25 -58 -32 -3
-8 -11 -14 -19 -14 -8 0 -14 -10 -14 -22 0 -22 34 -270 46 -333 5 -26 0 -22
-30 25 -20 30 -40 65 -46 78 -17 39 -120 211 -130 217 -5 3 -7 12 -4 19 8 20
-18 35 -82 46 -32 6 -86 15 -119 21 -59 11 -177 67 -239 114 -17 13 -74 48
-126 78 -52 30 -139 81 -193 114 -137 85 -280 140 -441 168 -174 32 -518 7
-551 -39 -10 -12 -15 -12 -41 -1 -75 35 -223 94 -259 104 -73 20 -67 26 53 54
223 51 277 60 365 64 57 3 87 8 88 16 1 15 4 33 17 82 5 22 18 87 28 145 16
90 20 100 25 70 23 -120 51 -248 59 -267 9 -22 15 -23 114 -23 57 0 139 -7
183 -16 43 -9 89 -16 102 -16 15 0 19 -3 12 -7 -19 -12 14 -34 38 -26 11 3 20
10 18 14 -1 4 35 44 81 88 45 44 82 77 82 73 0 -3 -11 -34 -25 -68 -26 -63
-33 -122 -15 -122 6 0 10 -11 10 -24 0 -17 11 -31 37 -48 20 -12 57 -36 82
-52 25 -16 120 -67 211 -113 91 -45 203 -106 249 -135 82 -51 86 -52 150 -49
113 6 138 4 165 -14 21 -14 38 -16 89 -10 56 6 84 15 198 62 82 34 169 161
169 246 0 39 -22 121 -44 163 -9 17 -46 63 -82 102 -56 60 -81 78 -167 120
-99 48 -192 74 -307 87 -30 4 -57 8 -59 10 -2 2 16 55 39 117 24 62 47 127 52
144 5 21 16 34 32 38 14 3 34 24 49 48 14 24 42 61 64 84 21 22 64 70 96 107
33 37 61 67 63 67 2 0 -10 -28 -25 -63z m-6203 -49 c83 -75 191 -166 208 -176
8 -4 16 -19 19 -32 5 -28 17 -36 62 -45 24 -4 41 -1 61 13 15 11 36 22 47 26
22 6 23 0 62 -261 4 -25 0 -37 -20 -55 -59 -53 -79 -137 -60 -251 10 -66 42
-88 305 -218 42 -21 98 0 98 36 0 8 25 33 55 57 30 23 55 48 55 55 0 7 5 13
11 13 5 0 41 31 80 69 38 38 69 66 69 63 0 -15 -32 -96 -50 -131 -33 -62 -87
-185 -94 -212 -10 -46 8 -59 289 -204 55 -28 118 -63 140 -76 22 -14 80 -44
129 -68 48 -23 87 -44 84 -46 -8 -8 -194 -35 -243 -35 -34 0 -58 7 -75 20 -14
11 -31 20 -38 20 -7 0 -38 14 -70 31 -31 17 -84 42 -117 56 -79 32 -217 95
-332 149 -51 24 -94 44 -97 44 -4 0 -147 68 -341 161 -46 23 -87 71 -101 121
-28 93 -4 252 52 348 54 93 54 109 2 188 -25 37 -71 108 -103 157 -32 50 -80
123 -107 163 -27 39 -47 72 -44 72 4 0 32 -24 64 -52z m6551 -118 c-23 -85
-69 -256 -76 -283 -3 -10 -8 -17 -11 -15 -4 2 -37 18 -73 37 l-67 34 34 34
c19 18 34 38 34 43 0 5 14 24 30 42 17 18 30 38 30 44 0 7 7 14 15 18 8 3 15
10 15 15 0 6 11 22 25 37 14 15 25 31 25 37 0 9 32 38 37 33 1 -1 -7 -35 -18
-76z m-3254 -356 c-8 -87 -17 -171 -19 -186 -8 -40 20 -97 52 -109 15 -6 55
-24 90 -41 35 -16 66 -27 69 -25 3 3 16 2 29 -3 18 -7 24 -6 24 5 0 13 52 75
121 144 14 14 36 41 48 59 13 18 25 31 27 29 5 -4 -14 -82 -43 -184 -17 -60
-14 -103 7 -113 38 -19 71 -32 150 -59 47 -16 119 -43 160 -61 41 -18 149 -63
240 -100 91 -37 196 -84 233 -104 38 -20 74 -36 81 -36 6 0 12 -8 13 -17 1
-12 -22 -31 -70 -58 -132 -73 -121 -73 -267 -5 -71 33 -131 60 -134 60 -2 0
-43 18 -90 40 -47 22 -88 40 -91 40 -3 0 -38 15 -78 34 -75 35 -129 56 -312
125 -60 23 -123 48 -140 56 -69 32 -229 71 -323 79 -100 8 -302 -14 -497 -55
-128 -27 -225 -43 -270 -42 -81 0 -97 -12 -89 -67 6 -38 -11 -238 -21 -248 -3
-3 -27 18 -53 48 -26 29 -75 82 -109 117 -35 35 -63 70 -63 77 0 37 -84 34
-267 -8 -81 -19 -186 -49 -233 -66 -47 -17 -120 -35 -163 -41 l-79 -10 -66 37
c-183 101 -177 97 -152 106 43 16 355 96 400 102 56 9 70 21 70 59 0 17 4 44
9 61 12 38 42 276 37 285 -2 3 2 31 9 61 12 52 13 53 19 25 7 -27 48 -164 93
-310 20 -64 59 -115 87 -115 11 0 66 11 121 24 55 13 122 26 149 30 28 3 52
10 55 15 6 8 49 15 161 27 25 2 80 9 122 15 42 5 208 14 368 18 193 6 295 12
303 20 6 6 18 11 27 11 10 0 51 60 111 162 51 90 99 172 104 184 11 23 49 73
52 70 2 -1 -4 -74 -12 -162z m-3198 -41 c-13 -25 -45 -143 -62 -225 -3 -16
-10 -28 -16 -28 -23 0 -77 -53 -104 -101 -37 -68 -40 -179 -7 -251 27 -59 102
-132 158 -154 94 -36 325 4 393 67 21 20 21 20 84 -9 34 -16 96 -44 137 -62
80 -36 103 -50 80 -50 -8 0 -50 -18 -93 -41 -43 -23 -116 -54 -160 -69 -45
-16 -122 -43 -172 -61 -77 -27 -108 -32 -210 -37 -66 -2 -126 -9 -134 -16 -12
-10 -64 -75 -175 -220 -21 -28 -43 -55 -48 -61 -13 -13 -5 40 41 263 11 57 21
116 21 132 0 25 -4 28 -42 33 -33 3 -58 -2 -106 -24 -34 -16 -67 -29 -72 -29
-6 0 -53 -20 -104 -45 -52 -25 -97 -45 -100 -45 -3 0 -41 -16 -83 -36 -43 -20
-82 -38 -88 -41 -5 -2 1 5 15 17 72 62 166 141 251 211 161 133 179 151 179
174 0 19 -10 30 -40 45 -21 11 -48 20 -58 20 -11 0 -55 9 -98 21 -44 11 -121
30 -173 43 l-93 22 198 28 c216 31 264 44 264 74 0 22 -42 87 -86 135 -17 17
-50 57 -73 87 -47 59 -144 170 -176 202 -20 19 -20 19 10 8 43 -15 94 -41 140
-70 71 -46 223 -120 245 -120 12 0 47 27 88 69 53 54 85 77 157 110 50 23 97
46 105 51 8 5 16 9 18 9 1 1 -4 -11 -11 -26z m5873 -81 c23 -9 21 -11 -44 -75
-37 -37 -72 -67 -77 -67 -5 0 -46 -25 -90 -56 -82 -58 -102 -64 -75 -22 8 13
29 56 46 97 16 40 40 89 52 109 l21 35 72 -6 c40 -4 82 -10 95 -15z m-5455
-89 c15 -49 36 -108 47 -132 10 -24 17 -46 14 -48 -8 -8 -97 49 -112 71 -20
32 -21 139 0 171 9 14 18 25 20 25 2 0 16 -39 31 -87z m5707 -10 l47 -30 -60
-59 c-32 -32 -59 -62 -59 -66 0 -4 7 -13 15 -20 9 -7 21 -18 28 -24 7 -6 43
-32 80 -58 38 -25 78 -54 91 -63 l24 -18 -31 -38 c-16 -21 -40 -45 -52 -53
-21 -14 -27 -13 -77 19 -29 18 -78 47 -108 63 -30 15 -69 39 -86 51 -17 13
-36 23 -43 23 -22 0 -100 -49 -168 -105 -37 -30 -73 -55 -81 -55 -7 0 -37 16
-66 35 -29 19 -78 46 -109 60 -31 13 -57 27 -57 30 0 2 25 12 56 21 93 27 169
66 289 149 32 22 73 50 91 63 44 29 100 90 115 124 l11 27 51 -23 c29 -13 73
-36 99 -53z m130 -125 c25 -33 53 -117 47 -137 -2 -6 -15 -1 -29 12 -14 12
-46 38 -73 57 l-47 34 32 33 c17 18 35 33 39 33 4 0 18 -15 31 -32z m-6301
-45 c4 -45 11 -68 29 -92 37 -53 97 -96 167 -120 37 -13 75 -30 83 -36 8 -7
28 -19 43 -27 l29 -15 -44 -16 c-76 -28 -121 -37 -189 -37 -56 0 -71 4 -102
28 -48 37 -85 96 -93 147 -7 52 18 150 44 164 21 12 32 14 33 4z m5499 -33 c0
-5 -5 -10 -11 -10 -5 0 -7 5 -4 10 3 6 8 10 11 10 2 0 4 -4 4 -10z m-847 -190
c10 -31 24 -69 32 -83 7 -13 20 -48 30 -76 16 -49 23 -56 55 -51 33 4 168 63
224 97 47 29 62 34 75 25 9 -7 51 -33 94 -58 42 -25 77 -49 77 -54 0 -4 -10
-10 -23 -14 -13 -3 -41 -18 -63 -32 -37 -26 -138 -72 -254 -116 -30 -12 -62
-27 -71 -35 -8 -7 -22 -13 -30 -13 -8 0 -27 -7 -42 -15 -15 -8 -42 -19 -60
-24 -52 -16 -119 -40 -167 -60 -110 -47 -185 -72 -201 -68 -10 3 -23 -1 -30
-9 -14 -16 -14 -49 -4 -264 l7 -165 -82 163 c-45 89 -86 162 -91 162 -5 0 -9
10 -9 23 0 13 -5 28 -12 35 -18 18 -56 15 -67 -6 -5 -9 -31 -23 -58 -30 -26
-8 -59 -18 -73 -22 -114 -38 -503 -100 -632 -100 -40 0 -131 -7 -203 -15 -71
-9 -247 -18 -390 -21 l-260 -5 -17 -72 c-10 -40 -16 -77 -13 -84 2 -6 0 -13
-4 -15 -4 -2 -15 -39 -25 -83 -20 -92 -31 -111 -34 -57 -2 20 -7 51 -12 67 -8
26 -30 148 -49 270 -5 32 -11 41 -30 43 -13 2 -28 -1 -34 -7 -19 -19 -56 -13
-227 35 -179 51 -242 73 -235 84 2 4 30 10 61 14 50 6 176 30 364 71 44 9 59
9 75 -1 50 -32 382 -51 585 -33 58 5 157 13 220 19 217 19 400 39 410 45 5 3
75 12 157 20 324 33 608 83 647 114 6 5 27 11 46 13 54 8 160 51 223 92 50 31
57 40 51 59 -8 24 -8 25 4 132 4 39 5 93 2 120 -5 50 -5 51 20 47 21 -3 28
-14 43 -62z m-1258 7 c33 -13 81 -32 108 -41 52 -20 53 -31 4 -41 -17 -4 -36
-11 -42 -14 -5 -4 -30 -13 -55 -20 -25 -6 -79 -26 -120 -42 -41 -17 -84 -35
-96 -39 -20 -8 -21 -15 -19 -132 2 -173 1 -178 -45 -178 -35 0 -40 4 -60 43
-12 23 -46 76 -74 117 -51 72 -54 75 -89 72 -47 -4 -140 -36 -175 -60 -15 -11
-38 -22 -52 -25 -54 -12 -116 -29 -135 -37 -26 -10 -150 -43 -245 -65 -41 -10
-127 -30 -190 -46 -63 -15 -173 -37 -245 -49 -71 -11 -202 -34 -290 -49 -88
-16 -187 -29 -220 -30 -33 -1 -109 -8 -170 -17 -107 -15 -145 -31 -145 -60 0
-7 -11 -25 -24 -41 -28 -33 -167 -298 -161 -305 3 -3 -5 -13 -16 -24 l-22 -19
6 80 c6 69 10 266 8 318 -1 13 -10 17 -36 17 -33 0 -51 -15 -222 -184 -103
-102 -189 -183 -191 -181 -5 4 21 58 80 165 19 36 41 83 48 105 7 22 17 45 22
51 5 7 11 22 13 34 6 29 24 50 44 51 10 0 11 2 4 6 -8 2 -11 14 -8 26 4 17 -3
28 -32 47 -42 29 -108 97 -108 113 0 6 26 19 57 29 32 11 83 32 115 47 l58 28
30 -22 c40 -30 183 -73 278 -84 186 -21 343 -13 662 35 179 26 219 34 300 59
44 13 118 33 165 45 46 11 89 25 95 30 6 5 40 16 76 24 35 7 84 19 109 25 25
6 95 21 155 35 174 38 399 93 447 110 23 8 90 31 148 51 57 20 120 45 140 56
19 10 40 16 45 14 6 -2 37 -14 70 -28z m2628 -13 c71 -35 99 -50 126 -68 10
-6 -2 -15 -44 -32 l-57 -23 -38 19 c-57 29 -113 35 -158 17 -26 -10 -43 -12
-55 -5 -15 8 -7 18 54 69 39 32 77 59 85 59 8 0 47 -16 87 -36z m-606 -306
c-17 -11 -197 -10 -197 1 0 6 24 23 53 38 l52 28 52 -30 c32 -19 47 -33 40
-37z m-2472 32 c3 -5 1 -10 -4 -10 -6 0 -11 5 -11 10 0 6 2 10 4 10 3 0 8 -4
11 -10z m2343 -117 c89 -4 132 -1 178 11 l60 16 72 -31 c44 -18 109 -35 164
-42 94 -13 116 -27 76 -48 -13 -6 -27 -18 -31 -25 -4 -8 -14 -14 -21 -14 -20
0 -34 -22 -40 -60 -3 -19 -18 -91 -34 -160 -16 -69 -32 -142 -36 -164 -10 -53
-17 -40 -21 41 -2 37 -6 117 -11 176 -7 104 -8 109 -37 133 -26 22 -37 25 -71
19 -109 -17 -211 -25 -311 -24 -135 1 -140 1 -132 -8 4 -3 2 -12 -3 -19 -8 -8
-6 -17 5 -28 9 -9 21 -32 27 -52 5 -20 24 -59 42 -87 18 -29 45 -74 61 -102
l28 -49 -49 35 c-55 40 -220 158 -322 232 -83 59 -151 105 -166 111 -17 7 11
23 84 47 36 12 70 25 75 30 6 4 62 28 124 52 107 42 114 44 142 30 19 -9 74
-17 147 -20z m-2111 -549 c-3 -3 -12 -4 -19 -1 -8 3 -5 6 6 6 11 1 17 -2 13
-5z"/>
<path d="M4736 7844 c-8 -21 -5 -25 82 -121 95 -105 172 -143 172 -85 0 20
-106 150 -159 195 -36 30 -85 36 -95 11z"/>
<path d="M5557 7783 c-4 -3 -7 -59 -7 -124 0 -129 8 -150 54 -142 23 5 26 10
27 52 1 25 3 78 4 116 1 39 -2 78 -7 88 -9 17 -58 24 -71 10z"/>
<path d="M5203 7493 c-30 -11 -11 -50 55 -116 50 -50 75 -67 95 -67 44 0 36
41 -20 103 -80 86 -94 95 -130 80z"/>
<path d="M4587 7473 c-31 -31 57 -143 113 -143 26 0 30 4 30 28 0 56 -112 147
-143 115z"/>
<path d="M4923 7290 c-10 -15 -10 -22 3 -35 20 -19 38 -19 58 1 20 20 20 40 0
48 -28 11 -49 6 -61 -14z"/>
<path d="M4353 7273 c-16 -6 -17 -45 -1 -61 28 -28 78 -9 78 28 0 27 -45 46
-77 33z"/>
<path d="M6120 8252 c0 -9 -7 -11 -19 -7 -49 15 -51 -98 -3 -116 33 -13 52 9
52 61 0 33 -29 93 -30 62z"/>
<path d="M5986 7964 c-19 -19 -20 -53 -4 -156 9 -63 15 -79 34 -88 41 -23 54
-7 53 62 -1 99 -14 179 -30 189 -21 13 -36 11 -53 -7z"/>
<path d="M6190 7870 c-12 -7 -14 -28 -12 -102 3 -133 10 -151 54 -156 34 -3
36 -2 40 32 5 46 -9 207 -19 217 -15 13 -48 18 -63 9z"/>
<path d="M2025 4155 c-48 -47 -22 -99 35 -70 38 19 46 38 32 71 -15 31 -36 31
-67 -1z"/>
<path d="M7176 2485 c-14 -14 -28 -36 -31 -48 -38 -180 -49 -247 -53 -328 l-4
-96 40 -42 c34 -35 45 -41 81 -41 23 0 51 4 61 10 22 12 58 72 62 102 9 78
-53 418 -83 454 -17 21 -45 17 -73 -11z"/>
<path d="M6916 1895 c-14 -14 -28 -36 -31 -48 -38 -180 -49 -247 -53 -328 l-4
-96 40 -42 c34 -35 45 -41 81 -41 23 0 51 4 61 10 22 12 58 72 62 102 9 78
-53 418 -83 454 -17 21 -45 17 -73 -11z"/>
<path d="M7426 1635 c-14 -14 -28 -36 -31 -48 -38 -180 -49 -247 -53 -328 l-4
-96 40 -42 c34 -35 45 -41 81 -41 23 0 51 4 61 10 22 12 58 72 62 102 9 78
-53 418 -83 454 -17 21 -45 17 -73 -11z"/>
</g>
</svg>
